# Procedural Asteroid Model
v -0.9880514914706455 -1.1595098260400234 -0.6962821435417449
v -0.8165486253097157 -1.0213887397180146 0.8613804834566491
v -1.0189332971581977 0.9263991661706468 -0.9466500390372437
v -0.7150278236312162 0.7941748768241881 1.0312126766208924
v 0.8887006490797238 -0.9279309852961859 -0.8319103935096426
v 0.8702535696190615 -0.8504829841982966 0.9732840044088396
v 0.7941773256526397 0.9869777242696448 -0.829793686094181
v 1.010512427049786 0.9943242126880238 0.6211549860144632
f 1 5 7 3
f 2 4 8 6
f 1 2 6 5
f 3 7 8 4
f 1 3 4 2
f 5 6 8 7
